<svg width="294" height="180" viewBox="0 0 294 180" fill="none" xmlns="http://www.w3.org/2000/svg"><path d="M0 120.922L50.474 2.012h30.283v118.91h13.124v25.139H80.757v31.928H53.502v-31.928H0v-25.139zm53.502 0V54.804l-28.013 66.118h28.013zM132.11 137.514c0 6.369 1.262 10.894 3.786 13.575 2.692 2.514 6.225 3.771 10.599 3.771 4.375 0 7.824-1.257 10.347-3.771 2.692-2.681 4.038-7.206 4.038-13.575V42.486c0-6.369-1.346-10.81-4.038-13.324-2.523-2.682-5.972-4.022-10.347-4.022-4.374 0-7.907 1.34-10.599 4.022-2.524 2.514-3.786 6.955-3.786 13.324v95.028zm-27.76-93.268c0-14.246 3.617-25.14 10.852-32.682C122.436 3.854 132.867 0 146.495 0s24.059 3.855 31.294 11.564c7.234 7.542 10.852 18.436 10.852 32.682v91.508c0 14.246-3.618 25.224-10.852 32.933-7.235 7.542-17.666 11.313-31.294 11.313s-24.059-3.771-31.293-11.313c-7.235-7.709-10.852-18.687-10.852-32.933V44.246zM200.119 120.922l50.474-118.91h30.284v118.91H294v25.139h-13.123v31.928h-27.256v-31.928h-53.502v-25.139zm53.502 0V54.804l-28.013 66.118h28.013z" fill="#050505"/></svg>