<svg width="560" height="137" viewBox="0 0 560 137" fill="none" xmlns="http://www.w3.org/2000/svg"><path d="M62.67 85.342v17.756c0 10.819-2.664 19.156-7.992 25.011-5.202 5.728-12.94 8.592-23.217 8.592-10.276 0-18.078-2.864-23.407-8.592-5.201-5.855-7.802-14.192-7.802-25.011V33.602c0-10.819 2.6-19.092 7.802-24.82C13.383 2.927 21.185 0 31.461 0s18.015 2.927 23.217 8.782c5.328 5.728 7.992 14.001 7.992 24.82v12.983H42.88v-14.32c0-4.836-1.016-8.209-3.046-10.118-1.903-2.037-4.503-3.055-7.802-3.055-3.298 0-5.963 1.018-7.992 3.055-1.903 1.91-2.855 5.282-2.855 10.119v72.169c0 4.836.952 8.209 2.855 10.119 2.03 1.909 4.694 2.863 7.992 2.863 3.299 0 5.9-.954 7.802-2.863 2.03-1.91 3.045-5.283 3.045-10.119V85.342H62.67zM95.353 1.527v103.099c0 4.836.951 8.209 2.854 10.118 2.03 1.91 4.694 2.864 7.993 2.864 3.298 0 5.899-.954 7.802-2.864 2.03-1.909 3.045-5.282 3.045-10.118V1.527h19.791V103.29c0 10.819-2.664 19.156-7.993 25.011-5.201 5.728-12.94 8.591-23.216 8.591-10.276 0-18.079-2.863-23.407-8.591-5.201-5.855-7.802-14.192-7.802-25.011V1.527h20.933zM151.194 1.527h20.933v114.554h34.444v19.092h-55.377V1.527zM200.113 1.527h64.701V20.62H242.93v114.553h-20.933V20.62h-21.884V1.527zM294.015 1.527v103.099c0 4.836.951 8.209 2.854 10.118 2.03 1.91 4.694 2.864 7.993 2.864 3.299 0 5.899-.954 7.802-2.864 2.03-1.909 3.045-5.282 3.045-10.118V1.527H335.5V103.29c0 10.819-2.664 19.156-7.992 25.011-5.202 5.728-12.941 8.591-23.217 8.591-10.276 0-18.078-2.863-23.407-8.591-5.201-5.855-7.802-14.192-7.802-25.011V1.527h20.933zM393.625 135.173a61.864 61.864 0 0 0-.761-2.482c-.254-.764-.508-1.718-.762-2.864a116.534 116.534 0 0 1-.38-4.391V97.752c0-6.236-1.079-10.628-3.235-13.173-2.157-2.546-5.646-3.819-10.467-3.819h-7.231v54.413h-20.933V1.527h31.59c10.91 0 18.776 2.546 23.597 7.637 4.948 5.091 7.421 12.792 7.421 23.102v10.5c0 13.747-4.567 22.784-13.701 27.112 5.328 2.163 8.944 5.727 10.847 10.691 2.03 4.837 3.045 10.756 3.045 17.756v20.62c0 3.309.127 6.237.38 8.782.254 2.419.888 4.901 1.903 7.446h-21.313zM370.789 20.62v41.048h8.183c3.933 0 6.977-1.018 9.134-3.055 2.284-2.036 3.425-5.727 3.425-11.073V34.366c0-4.837-.888-8.337-2.664-10.5-1.649-2.165-4.313-3.246-7.992-3.246h-10.086zM494.168 135.173h-21.123l-3.616-24.247h-25.69l-3.616 24.247h-19.22L442.216 1.527h30.639l21.313 133.646zm-47.765-42.385h20.172l-10.086-67.586-10.086 67.586zM503.917 1.527h20.933v114.554h34.444v19.092h-55.377V1.527z" fill="#050505"/></svg>