<svg width="297" height="135" viewBox="0 0 297 135" fill="none" xmlns="http://www.w3.org/2000/svg"><path d="M27.443 89.909L.978.579h21.896l15.993 60.89L54.861.578h19.992l-26.466 89.33v44.283H27.443V89.909zM104.266 56.887h28.751v19.088h-28.751v39.129h36.176v19.088h-57.12V.579h57.12v19.087h-36.176v37.221zM221.203 134.192h-21.134l-3.618-24.242h-25.704l-3.617 24.242h-19.231L169.224.579h30.654l21.325 133.613zm-47.79-42.375h20.182l-10.091-67.57-10.091 67.57zM274.748 134.192a60.276 60.276 0 0 0-.761-2.482c-.254-.763-.508-1.718-.762-2.863a116.342 116.342 0 0 1-.381-4.39V96.78c0-6.235-1.079-10.625-3.236-13.17-2.158-2.545-5.649-3.818-10.472-3.818H251.9v54.4h-20.944V.579h31.607c10.916 0 18.786 2.545 23.609 7.635 4.951 5.09 7.426 12.789 7.426 23.096v10.498c0 13.743-4.57 22.778-13.709 27.104 5.331 2.164 8.949 5.727 10.853 10.69 2.031 4.835 3.046 10.752 3.046 17.75v20.615c0 3.309.127 6.235.381 8.78.254 2.418.889 4.9 1.904 7.445h-21.325zM251.9 19.666v41.039h8.188c3.934 0 6.981-1.018 9.139-3.054 2.285-2.036 3.427-5.727 3.427-11.071V33.41c0-4.836-.889-8.335-2.666-10.499-1.65-2.163-4.315-3.245-7.996-3.245H251.9z" fill="#39F"/></svg>