<svg width="695" height="366" viewBox="0 0 695 366" fill="none" xmlns="http://www.w3.org/2000/svg"><path d="M41.552 263.727c0-5.955-1.017-9.946-3.05-11.973-1.906-2.154-4.51-3.231-7.815-3.231-3.303 0-5.972 1.014-8.005 3.041-1.906 1.9-2.859 5.258-2.859 10.072v14.253H0v-12.923c0-10.769 2.605-19.004 7.815-24.705 5.337-5.828 13.152-8.742 23.444-8.742 10.293 0 18.044 2.914 23.254 8.742 5.337 5.701 8.006 13.936 8.006 24.705 0 6.969-1.017 13.303-3.05 19.005-2.033 5.574-4.638 10.706-7.815 15.393a98.917 98.917 0 0 1-10.102 12.733A2622.116 2622.116 0 0 0 31.45 321.31c-3.05 3.547-5.591 7.032-7.624 10.452-2.033 3.295-3.05 6.779-3.05 10.453 0 1.267.064 2.217.19 2.851h39.647v19.004H0v-16.344c0-6.461 1.017-12.163 3.05-17.104 2.033-4.941 4.574-9.439 7.624-13.493a112.205 112.205 0 0 1 10.102-11.593 122.541 122.541 0 0 0 9.912-11.592 58.15 58.15 0 0 0 7.814-13.303c2.033-4.815 3.05-10.453 3.05-16.914zM94.823 333.473c0 4.814.954 8.235 2.86 10.262 2.033 1.901 4.701 2.851 8.005 2.851 3.304 0 5.909-.95 7.815-2.851 2.033-2.027 3.05-5.448 3.05-10.262v-71.837c0-4.814-1.017-8.172-3.05-10.072-1.906-2.027-4.511-3.041-7.815-3.041-3.304 0-5.972 1.014-8.005 3.041-1.907 1.9-2.86 5.258-2.86 10.072v71.837zm-20.966-70.507c0-10.769 2.732-19.004 8.196-24.705 5.464-5.828 13.342-8.742 23.635-8.742 10.293 0 18.171 2.914 23.635 8.742 5.464 5.701 8.196 13.936 8.196 24.705v69.177c0 10.769-2.732 19.067-8.196 24.895-5.464 5.702-13.342 8.552-23.635 8.552-10.293 0-18.171-2.85-23.635-8.552-5.464-5.828-8.196-14.126-8.196-24.895v-69.177zM156.164 247.763c4.066 0 7.37-.444 9.911-1.33 2.669-.887 4.829-2.091 6.481-3.611a18.352 18.352 0 0 0 4.003-5.322 49.209 49.209 0 0 0 2.668-6.461h14.105V364.07h-20.967V262.586h-16.201v-14.823zM280.341 331.002c0 11.276-2.605 19.892-7.815 25.846-5.21 5.828-13.279 8.742-24.207 8.742-10.293 0-18.108-2.85-23.445-8.552-5.21-5.828-7.815-14.126-7.815-24.895v-3.421h19.823v4.751c0 4.814.953 8.235 2.86 10.262 2.033 1.901 4.701 2.851 8.005 2.851 3.685 0 6.544-1.14 8.577-3.421 2.033-2.28 3.05-6.588 3.05-12.923v-24.326c-3.685 7.856-10.166 11.783-19.442 11.783-7.751 0-13.596-2.597-17.536-7.792-3.812-5.194-5.718-12.733-5.718-22.615v-24.326c0-10.769 2.732-19.004 8.196-24.705 5.464-5.828 13.343-8.742 23.635-8.742 10.293 0 18.171 2.914 23.636 8.742 5.464 5.701 8.196 13.936 8.196 24.705v68.036zm-31.832-32.307c3.304 0 5.909-.951 7.815-2.851 2.033-2.027 3.05-5.448 3.05-10.262v-23.946c0-4.814-1.017-8.172-3.05-10.072-1.906-1.901-4.511-2.851-7.815-2.851-3.303 0-5.972.95-8.005 2.851-1.906 1.9-2.859 5.258-2.859 10.072v23.946c0 4.814.953 8.235 2.859 10.262 2.033 1.9 4.702 2.851 8.005 2.851zM197.67 85.342v17.756c0 10.819-2.664 19.156-7.992 25.011-5.202 5.728-12.941 8.592-23.217 8.592-10.276 0-18.078-2.864-23.407-8.592-5.201-5.855-7.802-14.192-7.802-25.011V33.602c0-10.819 2.601-19.092 7.802-24.82C148.383 2.927 156.185 0 166.461 0s18.015 2.927 23.217 8.782c5.328 5.728 7.992 14.001 7.992 24.82v12.983h-19.791v-14.32c0-4.836-1.015-8.209-3.045-10.118-1.903-2.037-4.503-3.055-7.802-3.055-3.298 0-5.963 1.018-7.992 3.055-1.903 1.91-2.855 5.282-2.855 10.119v72.169c0 4.836.952 8.209 2.855 10.119 2.029 1.909 4.694 2.863 7.992 2.863 3.299 0 5.899-.954 7.802-2.863 2.03-1.91 3.045-5.283 3.045-10.119V85.342h19.791zM230.353 1.527v103.099c0 4.836.951 8.209 2.854 10.118 2.03 1.91 4.694 2.864 7.993 2.864 3.298 0 5.899-.954 7.802-2.864 2.03-1.909 3.045-5.282 3.045-10.118V1.527h19.791V103.29c0 10.819-2.664 19.156-7.993 25.011-5.201 5.728-12.94 8.591-23.216 8.591-10.276 0-18.079-2.863-23.407-8.591-5.201-5.855-7.802-14.192-7.802-25.011V1.527h20.933zM286.194 1.527h20.933v114.554h34.444v19.092h-55.377V1.527zM335.113 1.527h64.701V20.62H377.93v114.553h-20.933V20.62h-21.884V1.527zM429.015 1.527v103.099c0 4.836.951 8.209 2.854 10.118 2.03 1.91 4.694 2.864 7.993 2.864 3.299 0 5.899-.954 7.802-2.864 2.03-1.909 3.045-5.282 3.045-10.118V1.527H470.5V103.29c0 10.819-2.664 19.156-7.992 25.011-5.202 5.728-12.941 8.591-23.217 8.591-10.276 0-18.078-2.863-23.407-8.591-5.201-5.855-7.802-14.192-7.802-25.011V1.527h20.933zM528.625 135.173a61.864 61.864 0 0 0-.761-2.482c-.254-.764-.508-1.718-.762-2.864a116.534 116.534 0 0 1-.38-4.391V97.752c0-6.236-1.079-10.628-3.235-13.173-2.157-2.546-5.646-3.819-10.467-3.819h-7.231v54.413h-20.933V1.527h31.59c10.91 0 18.776 2.546 23.597 7.637 4.948 5.091 7.421 12.792 7.421 23.102v10.5c0 13.747-4.567 22.784-13.701 27.112 5.328 2.163 8.944 5.727 10.847 10.691 2.03 4.837 3.045 10.756 3.045 17.756v20.62c0 3.309.127 6.237.38 8.782.254 2.419.888 4.901 1.903 7.446h-21.313zM505.789 20.62v41.048h8.183c3.933 0 6.977-1.018 9.134-3.055 2.284-2.036 3.425-5.727 3.425-11.073V34.366c0-4.837-.888-8.337-2.664-10.5-1.649-2.165-4.313-3.246-7.992-3.246h-10.086zM629.168 135.173h-21.123l-3.616-24.247h-25.69l-3.616 24.247h-19.22L577.216 1.527h30.639l21.313 133.646zm-47.765-42.385h20.172l-10.086-67.586-10.086 67.586zM638.917 1.527h20.933v114.554h34.444v19.092h-55.377V1.527z" fill="#050505"/><path d="M258.443 204.909l-26.465-89.33h21.896l15.993 60.889 15.994-60.889h19.992l-26.466 89.33v44.283h-20.944v-44.283zM335.266 171.887h28.751v19.088h-28.751v39.129h36.176v19.088h-57.119V115.579h57.119v19.088h-36.176v37.22zM452.203 249.192h-21.134l-3.618-24.242h-25.704l-3.617 24.242h-19.231l21.325-133.613h30.654l21.325 133.613zm-47.79-42.375h20.182l-10.091-67.569-10.091 67.569zM505.748 249.192a60.276 60.276 0 0 0-.761-2.482c-.254-.763-.508-1.718-.762-2.863a116.342 116.342 0 0 1-.381-4.39V211.78c0-6.235-1.079-10.625-3.236-13.17-2.158-2.545-5.649-3.818-10.472-3.818H482.9v54.4h-20.944V115.579h31.607c10.916 0 18.786 2.545 23.609 7.635 4.951 5.09 7.426 12.789 7.426 23.096v10.498c0 13.743-4.57 22.778-13.709 27.104 5.331 2.164 8.949 5.727 10.853 10.689 2.031 4.836 3.046 10.753 3.046 17.752v20.614c0 3.309.127 6.235.381 8.78.254 2.418.889 4.9 1.904 7.445h-21.325zM482.9 134.667v41.038h8.188c3.934 0 6.981-1.018 9.139-3.054 2.285-2.036 3.427-5.727 3.427-11.071v-13.17c0-4.836-.889-8.335-2.666-10.499-1.65-2.163-4.315-3.244-7.996-3.244H482.9z" fill="#39F"/></svg>