<svg width="281" height="137" viewBox="0 0 281 137" fill="none" xmlns="http://www.w3.org/2000/svg"><path d="M41.552 34.727c0-5.955-1.017-9.946-3.05-11.973-1.906-2.154-4.51-3.231-7.815-3.231-3.303 0-5.972 1.014-8.005 3.04-1.906 1.901-2.859 5.259-2.859 10.073V46.89H0V33.966C0 23.197 2.605 14.962 7.815 9.261 13.152 3.433 20.967.519 31.259.519c10.293 0 18.044 2.914 23.254 8.742 5.337 5.7 8.006 13.936 8.006 24.705 0 6.969-1.017 13.303-3.05 19.005-2.033 5.574-4.638 10.706-7.815 15.393a98.951 98.951 0 0 1-10.102 12.733A2622.877 2622.877 0 0 0 31.45 92.31c-3.05 3.547-5.591 7.032-7.624 10.452-2.033 3.295-3.05 6.779-3.05 10.453 0 1.267.064 2.217.19 2.851h39.647v19.004H0v-16.344c0-6.461 1.017-12.163 3.05-17.104 2.033-4.941 4.574-9.439 7.624-13.493a112.148 112.148 0 0 1 10.102-11.593 122.537 122.537 0 0 0 9.912-11.592 58.125 58.125 0 0 0 7.814-13.303c2.033-4.815 3.05-10.453 3.05-16.914zM94.823 104.473c0 4.814.954 8.235 2.86 10.262 2.033 1.901 4.701 2.851 8.005 2.851 3.304 0 5.909-.95 7.815-2.851 2.033-2.027 3.05-5.448 3.05-10.262V32.636c0-4.814-1.017-8.172-3.05-10.072-1.906-2.027-4.511-3.041-7.815-3.041-3.304 0-5.972 1.014-8.005 3.04-1.907 1.901-2.86 5.259-2.86 10.073v71.837zM73.857 33.966c0-10.769 2.732-19.004 8.196-24.705C87.517 3.433 95.395.519 105.688.519c10.293 0 18.171 2.914 23.635 8.742 5.464 5.7 8.196 13.936 8.196 24.705v69.177c0 10.769-2.732 19.067-8.196 24.895-5.464 5.702-13.342 8.552-23.635 8.552-10.293 0-18.171-2.85-23.635-8.552-5.464-5.828-8.196-14.126-8.196-24.895V33.966zM156.164 18.763c4.066 0 7.37-.444 9.911-1.33 2.669-.887 4.829-2.091 6.481-3.611a18.352 18.352 0 0 0 4.003-5.322 49.195 49.195 0 0 0 2.668-6.461h14.105V135.07h-20.967V33.586h-16.201V18.763zM280.341 102.002c0 11.276-2.605 19.892-7.815 25.846-5.21 5.828-13.279 8.742-24.207 8.742-10.293 0-18.108-2.85-23.445-8.552-5.21-5.828-7.815-14.126-7.815-24.895v-3.421h19.823v4.751c0 4.814.953 8.235 2.86 10.262 2.033 1.901 4.701 2.851 8.005 2.851 3.685 0 6.544-1.14 8.577-3.421 2.033-2.28 3.05-6.588 3.05-12.923V76.916c-3.685 7.856-10.166 11.783-19.442 11.783-7.751 0-13.596-2.597-17.536-7.792-3.812-5.194-5.718-12.733-5.718-22.615V33.966c0-10.769 2.732-19.004 8.196-24.705 5.464-5.828 13.343-8.742 23.635-8.742 10.293 0 18.171 2.914 23.636 8.742 5.464 5.7 8.196 13.936 8.196 24.705v68.036zm-31.832-32.307c3.304 0 5.909-.95 7.815-2.851 2.033-2.027 3.05-5.448 3.05-10.262V32.636c0-4.814-1.017-8.172-3.05-10.072-1.906-1.9-4.511-2.85-7.815-2.85-3.303 0-5.972.95-8.005 2.85-1.906 1.9-2.859 5.258-2.859 10.072v23.946c0 4.814.953 8.235 2.859 10.262 2.033 1.9 4.702 2.85 8.005 2.85z" fill="#050505"/></svg>