<svg width="1094" height="678" viewBox="0 0 1094 678" fill="none" xmlns="http://www.w3.org/2000/svg"><path d="M26.67 414L0 440.724l26.67 26.724 26.669-26.724L26.669 414zM824.5 595c9.665 0 17.5-8.059 17.5-18s-7.835-18-17.5-18-17.5 8.059-17.5 18 7.835 18 17.5 18zM523 532h-26v27h26v-27z" fill="#ED063D"/><path d="M634.669 377L608 403.724l26.669 26.724 26.67-26.724L634.669 377zM1076.5 241c9.67 0 17.5-8.059 17.5-18s-7.83-18-17.5-18c-9.66 0-17.5 8.059-17.5 18s7.84 18 17.5 18zM482 651h-27v27h27v-27z" fill="#FFBF15"/><path d="M882.669 0L856 26.724l26.669 26.724 26.67-26.724L882.669 0zM236.5 550c9.665 0 17.5-8.059 17.5-18s-7.835-18-17.5-18-17.5 8.059-17.5 18 7.835 18 17.5 18zM129 103h-27v27h27v-27z" fill="#39F"/></svg>