<svg width="1151" height="762" viewBox="0 0 1151 762" fill="none" xmlns="http://www.w3.org/2000/svg"><path d="M963.669 20L937 46.724l26.669 26.724 26.67-26.724L963.669 20z" fill="#ED063D" opacity=".5" filter="url(#a)"/><path d="M37.5 742c9.665 0 17.5-8.059 17.5-18s-7.835-18-17.5-18S20 714.059 20 724s7.835 18 17.5 18z" fill="#ED063D" opacity=".5" filter="url(#b)"/><path d="M884 488h-26v27h26v-27z" fill="#ED063D" opacity=".5" filter="url(#c)"/><path d="M1091.67 671L1065 697.724l26.67 26.724 26.67-26.724L1091.67 671z" fill="#FFBF15" opacity=".5" filter="url(#d)"/><path d="M796.5 441c9.665 0 17.5-8.059 17.5-18s-7.835-18-17.5-18-17.5 8.059-17.5 18 7.835 18 17.5 18z" fill="#FFBF15" opacity=".5" filter="url(#e)"/><path d="M1131 578h-27v27h27v-27z" fill="#FFBF15" opacity=".5" filter="url(#f)"/><path d="M386.669 408L360 434.724l26.669 26.724 26.67-26.724L386.669 408z" fill="#39F" opacity=".5" filter="url(#g)"/><path d="M472.5 212c9.665 0 17.5-8.059 17.5-18s-7.835-18-17.5-18-17.5 8.059-17.5 18 7.835 18 17.5 18z" fill="#39F" opacity=".5" filter="url(#h)"/><path d="M1105.66 474h-27v27h27v-27z" fill="#39F" opacity=".5" filter="url(#i)"/><defs><filter id="a" x="917" y="0" width="93.339" height="93.448" filterUnits="userSpaceOnUse" color-interpolation-filters="sRGB"><feFlood flood-opacity="0" result="BackgroundImageFix"/><feBlend in="SourceGraphic" in2="BackgroundImageFix" result="shape"/><feGaussianBlur stdDeviation="10" result="effect1_foregroundBlur"/></filter><filter id="b" x="0" y="686" width="75" height="76" filterUnits="userSpaceOnUse" color-interpolation-filters="sRGB"><feFlood flood-opacity="0" result="BackgroundImageFix"/><feBlend in="SourceGraphic" in2="BackgroundImageFix" result="shape"/><feGaussianBlur stdDeviation="10" result="effect1_foregroundBlur"/></filter><filter id="c" x="838" y="468" width="66" height="67" filterUnits="userSpaceOnUse" color-interpolation-filters="sRGB"><feFlood flood-opacity="0" result="BackgroundImageFix"/><feBlend in="SourceGraphic" in2="BackgroundImageFix" result="shape"/><feGaussianBlur stdDeviation="10" result="effect1_foregroundBlur"/></filter><filter id="d" x="1045" y="651" width="93.339" height="93.448" filterUnits="userSpaceOnUse" color-interpolation-filters="sRGB"><feFlood flood-opacity="0" result="BackgroundImageFix"/><feBlend in="SourceGraphic" in2="BackgroundImageFix" result="shape"/><feGaussianBlur stdDeviation="10" result="effect1_foregroundBlur"/></filter><filter id="e" x="759" y="385" width="75" height="76" filterUnits="userSpaceOnUse" color-interpolation-filters="sRGB"><feFlood flood-opacity="0" result="BackgroundImageFix"/><feBlend in="SourceGraphic" in2="BackgroundImageFix" result="shape"/><feGaussianBlur stdDeviation="10" result="effect1_foregroundBlur"/></filter><filter id="f" x="1084" y="558" width="67" height="67" filterUnits="userSpaceOnUse" color-interpolation-filters="sRGB"><feFlood flood-opacity="0" result="BackgroundImageFix"/><feBlend in="SourceGraphic" in2="BackgroundImageFix" result="shape"/><feGaussianBlur stdDeviation="10" result="effect1_foregroundBlur"/></filter><filter id="g" x="340" y="388" width="93.339" height="93.448" filterUnits="userSpaceOnUse" color-interpolation-filters="sRGB"><feFlood flood-opacity="0" result="BackgroundImageFix"/><feBlend in="SourceGraphic" in2="BackgroundImageFix" result="shape"/><feGaussianBlur stdDeviation="10" result="effect1_foregroundBlur"/></filter><filter id="h" x="435" y="156" width="75" height="76" filterUnits="userSpaceOnUse" color-interpolation-filters="sRGB"><feFlood flood-opacity="0" result="BackgroundImageFix"/><feBlend in="SourceGraphic" in2="BackgroundImageFix" result="shape"/><feGaussianBlur stdDeviation="10" result="effect1_foregroundBlur"/></filter><filter id="i" x="1058.66" y="454" width="67" height="67" filterUnits="userSpaceOnUse" color-interpolation-filters="sRGB"><feFlood flood-opacity="0" result="BackgroundImageFix"/><feBlend in="SourceGraphic" in2="BackgroundImageFix" result="shape"/><feGaussianBlur stdDeviation="10" result="effect1_foregroundBlur"/></filter></defs></svg>