<svg width="24" height="28" viewBox="0 0 24 28" fill="none" xmlns="http://www.w3.org/2000/svg"><path d="M18 2h-1V0h-2v2H5V0H3v2H2C.9 2 0 2.9 0 4v16c0 1.1.9 2 2 2h10v-2H2V7h16v9.53h2V4c0-1.1-.9-2-2-2z" fill="#FFBF15"/><path d="M7 10V8H3v2h4zM7 16v-2H3v2h4zM12 8v2H8V8h4zM17 10V8h-4v2h4zM7 11v2H3v-2h4zM12 13v-2H8v2h4zM17 11v2h-4v-2h4zM12 16v-2H8v2h4zM17 14v2h-4v-2h4zM7 19v-2H3v2h4zM12 17v2H8v-2h4zM20 22.095v-1.968h-2v1.968h-2v1.968h2v1.969h2v-1.969h2v-1.968h-2z" fill="#FFBF15"/><path fill-rule="evenodd" clip-rule="evenodd" d="M14 23.08c0-2.718 2.239-4.921 5-4.921s5 2.203 5 4.92C24 25.797 21.761 28 19 28s-5-2.203-5-4.92zm5 3.936c-2.21 0-4-1.763-4-3.937s1.79-3.936 4-3.936 4 1.762 4 3.936-1.79 3.937-4 3.937z" fill="#FFBF15"/></svg>