<svg width="40" height="40" viewBox="0 0 40 40" fill="none" xmlns="http://www.w3.org/2000/svg"><path d="M36.667 28.2v5a3.332 3.332 0 0 1-3.633 3.334 32.984 32.984 0 0 1-14.383-5.117 32.501 32.501 0 0 1-10-10 32.984 32.984 0 0 1-5.117-14.45 3.333 3.333 0 0 1 3.317-3.633h5A3.333 3.333 0 0 1 15.184 6.2c.211 1.6.603 3.172 1.167 4.684a3.333 3.333 0 0 1-.75 3.516l-2.117 2.117a26.667 26.667 0 0 0 10 10l2.117-2.117a3.334 3.334 0 0 1 3.516-.75c1.512.565 3.084.956 4.684 1.167a3.334 3.334 0 0 1 2.866 3.383z" stroke="#EBF5FF" stroke-width="6" stroke-linecap="round" stroke-linejoin="round"/></svg>