<svg width="15" height="15" viewBox="0 0 15 15" fill="none" xmlns="http://www.w3.org/2000/svg"><path d="M4.49 7.986a2.665 2.665 0 0 1 2.662-2.662 2.665 2.665 0 0 1 2.662 2.662 2.665 2.665 0 0 1-2.662 2.662A2.666 2.666 0 0 1 4.49 7.986z" fill="#39F"/><path fill-rule="evenodd" clip-rule="evenodd" d="M2.717.984h8.87a2.57 2.57 0 0 1 2.567 2.567v8.87a2.57 2.57 0 0 1-2.567 2.567h-8.87A2.57 2.57 0 0 1 .15 12.421V3.55A2.57 2.57 0 0 1 2.717.984zm-.175 7.002a4.615 4.615 0 0 0 4.61 4.61 4.616 4.616 0 0 0 4.61-4.61 4.615 4.615 0 0 0-4.61-4.61 4.615 4.615 0 0 0-4.61 4.61zm9.369-3.657c-.602 0-1.092-.49-1.092-1.09a1.092 1.092 0 0 1 2.182 0c0 .6-.49 1.09-1.09 1.09z" fill="#39F"/></svg>