<svg width="127" height="64" viewBox="0 0 127 64" fill="none" xmlns="http://www.w3.org/2000/svg"><g clip-path="url(#a)"><path d="M81.954 37.35l-3.367 3.375 3.367 3.374 3.368-3.374-3.368-3.375zM54.176 7.462l-5.413 5.424 5.413 5.425 5.413-5.425-5.413-5.424z" fill="#ED063D"/><path d="M63.408 54.63l-4.674 4.682 4.674 4.684 4.673-4.684-4.673-4.683z" fill="#FFBF15"/><path d="M35.66 27.985l-3.51 3.516 3.51 3.517 3.509-3.517-3.51-3.516zM81.954.118l-3.509 3.516 3.51 3.516 3.508-3.516L81.954.118z" fill="#ED063D"/><path d="M91.165 46.498l-3.509 3.516 3.51 3.516 3.508-3.516-3.509-3.517z" fill="#FFBF15"/><path d="M35.663 47.565l-2.424 2.428 2.424 2.428 2.423-2.428-2.423-2.428zM37.23 11.373h-3.07v3.077h3.07v-3.077zM83.385 57.912h-2.759v2.765h2.76v-2.765zM46.889 57.31h-3.961v3.97h3.96v-3.97zM94.222 28.432h-6.008v6.021h6.008v-6.02zM54.188 55.348c2.95 0 5.34-2.396 5.34-5.352a5.346 5.346 0 0 0-5.34-5.352 5.346 5.346 0 0 0-5.341 5.352 5.346 5.346 0 0 0 5.34 5.352zM63.446 7.225a3.609 3.609 0 0 0 3.605-3.612A3.609 3.609 0 0 0 63.446 0a3.609 3.609 0 0 0-3.605 3.613 3.609 3.609 0 0 0 3.605 3.612zM91.241 14.74c.996 0 1.803-.809 1.803-1.806 0-.998-.807-1.806-1.803-1.806-.995 0-1.802.808-1.802 1.806 0 .997.807 1.806 1.802 1.806z" fill="#ED063D"/><path d="M44.93 6.378a2.762 2.762 0 0 0 2.76-2.765A2.762 2.762 0 0 0 44.93.847a2.762 2.762 0 0 0-2.76 2.766 2.762 2.762 0 0 0 2.76 2.765zM44.886 27.116a4.968 4.968 0 0 0 4.963-4.973 4.968 4.968 0 0 0-4.963-4.972 4.968 4.968 0 0 0-4.962 4.973 4.968 4.968 0 0 0 4.962 4.972z" fill="#2595E8"/><path d="M72.703 54.322a4.322 4.322 0 0 0 4.317-4.326 4.322 4.322 0 0 0-4.317-4.326 4.322 4.322 0 0 0-4.317 4.326 4.322 4.322 0 0 0 4.317 4.326z" fill="#ED063D"/><path d="M69.799 38.614l-5.146 5.156 5.146 5.156 5.145-5.156-5.145-5.156z" fill="#2595E8"/><path d="M82.117 34.631a3.23 3.23 0 0 0 3.226-3.233 3.23 3.23 0 0 0-3.227-3.234 3.23 3.23 0 0 0-3.226 3.234 3.23 3.23 0 0 0 3.227 3.233z" fill="#FFBF15"/><path d="M41.57 45.224c-1.068-1.026-1.58-2.476-1.58-4.326v-6.824h4.162v6.69c0 .914.155 1.56.49 1.984.333.424.8.625 1.401.625.623 0 1.09-.2 1.402-.625.334-.423.49-1.07.49-1.984v-6.69h4.094v6.824c0 1.85-.534 3.3-1.58 4.326-1.068 1.026-2.536 1.538-4.428 1.538-1.914 0-3.383-.513-4.45-1.538zM58.795 42.37l-.935 1.047v3.055h-4.094V34.075h4.094v4.504l4.073-4.504h4.54l-4.94 5.463 5.184 6.935h-4.829l-3.093-4.103zM72.547 43.373h-.823v3.122h-4.162V34.096h5.653c1.135 0 2.136.179 2.982.558.846.379 1.513.914 1.958 1.627.468.714.69 1.54.69 2.476 0 .892-.2 1.65-.6 2.319-.401.669-.98 1.182-1.736 1.583l2.603 3.836h-4.45l-2.115-3.122zm1.647-5.687c-.29-.245-.712-.379-1.268-.379h-1.202v2.9h1.202c.556 0 .979-.135 1.268-.38.29-.245.423-.602.423-1.07 0-.446-.133-.803-.423-1.07zM89.794 44.332h-4.696l-.823 2.163h-4.25l5.407-12.399h4.095l5.407 12.399h-4.317l-.823-2.163zm-1.157-3.01l-1.202-3.123-1.202 3.122h2.404zM95.803 34.096h4.161v12.399h-4.161V34.096zM114.362 34.096v12.399h-3.427l-4.696-5.642v5.642h-4.072V34.096h3.427l4.696 5.642v-5.642h4.072zM126.847 43.328v3.144h-10.282V34.075h10.059v3.166h-5.964v1.45h5.23v3.01h-5.23v1.628h6.187zM9.77 27.74H5.073l-.824 2.164H0l5.408-12.399h4.094l5.408 12.399h-4.317l-.824-2.163zm-1.136-3.01l-1.201-3.122L6.23 24.73h2.403zM16.98 28.655C15.91 27.63 15.4 26.18 15.4 24.33v-6.824h4.16v6.69c0 .914.157 1.561.49 1.985.334.424.802.624 1.402.624.624 0 1.09-.2 1.402-.624.334-.424.49-1.07.49-1.985v-6.69h4.095v6.824c0 1.85-.534 3.3-1.58 4.326-1.069 1.026-2.537 1.539-4.429 1.539-1.914 0-3.382-.513-4.45-1.539zM31.155 29.837c-.979-.223-1.78-.535-2.403-.937l1.335-3.055a8.392 8.392 0 0 0 1.98.825c.735.201 1.425.313 2.115.313.578 0 .98-.067 1.246-.179.245-.111.378-.29.378-.513 0-.267-.155-.446-.49-.58-.333-.133-.867-.267-1.601-.423-.957-.2-1.759-.424-2.382-.647-.645-.223-1.18-.602-1.669-1.137-.467-.535-.712-1.227-.712-2.14 0-.781.223-1.495.646-2.12.445-.646 1.09-1.137 1.958-1.516.868-.357 1.914-.557 3.16-.557.846 0 1.691.089 2.492.267.824.179 1.536.446 2.159.803l-1.246 3.033c-1.224-.625-2.36-.914-3.45-.914-1.068 0-1.602.267-1.602.78 0 .245.156.424.467.558.312.133.846.267 1.58.4.935.18 1.736.38 2.382.603.645.223 1.201.602 1.691 1.115.467.513.712 1.227.712 2.119 0 .78-.222 1.494-.645 2.118-.445.624-1.09 1.137-1.959 1.516-.867.38-1.913.558-3.16.558a9.492 9.492 0 0 1-2.982-.29zM59.062 26.782h-1.135v3.122h-4.161V17.505h5.964c1.135 0 2.136.179 2.982.558.845.379 1.513.914 1.958 1.628.467.713.69 1.538.69 2.475 0 .892-.2 1.65-.601 2.319-.4.669-.98 1.182-1.736 1.583l2.604 3.836h-4.45l-2.115-3.122zm1.67-5.664c-.29-.245-.713-.38-1.27-.38H57.95v2.9h1.514c.556 0 .979-.134 1.268-.38.29-.245.423-.601.423-1.07 0-.468-.156-.825-.423-1.07zM67.54 17.505h4.161v12.399H67.54V17.505zM82.784 27.74h-4.696l-.823 2.164h-4.25l5.407-12.399h4.095l5.408 12.399h-4.317l-.824-2.163zm-1.157-3.01l-1.202-3.122-1.201 3.122h2.403zM43.929 20.761h-3.583v-3.256h11.35v3.234h-3.584v9.165h-4.161V20.76h-.022z" fill="#fff"/><path d="M57.526 21.252a2.272 2.272 0 0 0 2.27-2.275 2.272 2.272 0 0 0-2.27-2.274 2.272 2.272 0 0 0-2.27 2.274 2.272 2.272 0 0 0 2.27 2.275z" fill="#FFBF15"/><path d="M82.282 40.85l-2.91 2.917 2.91 2.917 2.911-2.917-2.91-2.917z" fill="#2595E8"/><path d="M75.418 10.19h-5.407v5.42h5.407v-5.42zM82.139 24.463a2.317 2.317 0 0 0 2.314-2.32c0-1.28-1.036-2.319-2.314-2.319a2.317 2.317 0 0 0-2.315 2.32c0 1.28 1.036 2.319 2.315 2.319zM46.266 39.381h-2.738v2.743h2.738v-2.743z" fill="#ED063D"/></g><defs><clipPath id="a"><path fill="#fff" d="M0 0h126.847v64H0z"/></clipPath></defs></svg>