<svg width="20" height="21" viewBox="0 0 20 21" fill="none" xmlns="http://www.w3.org/2000/svg"><path fill-rule="evenodd" clip-rule="evenodd" d="M12.946 5.797H7c-.95 0-1.721.772-1.721 1.72v5.946c0 .949.772 1.72 1.72 1.72h5.946c.949 0 1.72-.771 1.72-1.72V7.518c0-.95-.771-1.721-1.72-1.721zM9.973 13.58a3.094 3.094 0 0 1-3.09-3.09 3.094 3.094 0 0 1 3.09-3.09 3.094 3.094 0 0 1 3.09 3.09 3.094 3.094 0 0 1-3.09 3.09zm2.458-6.272a.732.732 0 1 0 1.464-.002.732.732 0 0 0-1.464.002z" fill="#39F"/><path d="M9.973 8.706c-.983 0-1.784.8-1.784 1.784s.8 1.785 1.784 1.785 1.784-.8 1.784-1.785c0-.983-.8-1.784-1.784-1.784z" fill="#39F"/><path fill-rule="evenodd" clip-rule="evenodd" d="M0 10.463C0 4.956 4.465.49 9.973.49c5.508 0 9.973 4.466 9.973 9.973 0 5.508-4.465 9.973-9.973 9.973C4.465 20.436 0 15.971 0 10.463zm12.946 6.026a3.03 3.03 0 0 0 3.026-3.026V7.518a3.03 3.03 0 0 0-3.026-3.027H7a3.03 3.03 0 0 0-3.027 3.027v5.945a3.03 3.03 0 0 0 3.027 3.026h5.945z" fill="#39F"/></svg>