<svg width="20" height="21" viewBox="0 0 20 21" fill="none" xmlns="http://www.w3.org/2000/svg"><path d="M9.929 20.348c5.483 0 9.929-4.445 9.929-9.929 0-5.483-4.446-9.929-9.93-9.929C4.446.49 0 4.936 0 10.42c0 5.483 4.445 9.928 9.929 9.928z" fill="#39F"/><path d="M16.568 7.603a4.735 4.735 0 0 1-1.363.373 2.38 2.38 0 0 0 1.043-1.312 4.75 4.75 0 0 1-1.507.575 2.374 2.374 0 0 0-4.044 2.165 6.737 6.737 0 0 1-4.892-2.48 2.373 2.373 0 0 0 .734 3.169 2.356 2.356 0 0 1-1.074-.297v.03c0 1.15.818 2.109 1.903 2.327a2.366 2.366 0 0 1-1.071.041 2.376 2.376 0 0 0 2.217 1.648A4.762 4.762 0 0 1 5 14.825a6.712 6.712 0 0 0 3.638 1.066c4.365 0 6.752-3.616 6.752-6.753a6.79 6.79 0 0 0-.007-.307 4.815 4.815 0 0 0 1.185-1.228z" fill="#fff"/></svg>