<svg width="134" height="100" viewBox="0 0 134 100" fill="none" xmlns="http://www.w3.org/2000/svg"><path d="M32.283 11.667L20.615 0C6.886 13.729 0 31.756 0 49.74h16.492c0-13.773 5.264-27.546 15.79-38.073z" fill="#006FBA"/><path d="M32.283 87.857c-10.527-10.527-15.79-24.3-15.79-38.073H0c0 18.027 6.886 36.011 20.615 49.74l11.668-11.667z" fill="#FDB940"/><path d="M43.205 31.932v7.281c0 2.062 1.228 3.729 3.816 3.729 2.587 0 3.816-1.667 3.816-3.729v-7.237l-1.711-.044.044-1.184h4.912v1.14l-1.579.044v7.632c0 2.632-1.71 4.913-5.526 4.913s-5.527-2.281-5.527-4.913v-7.632l-1.667-.044.088-1.14h4.956v1.14l-1.622.044zM55.266 44.213l-.087-1.272 1.228-.044V29.958l-1.228-.044.087-1.272h2.808v9.825l1.403-.701 2.369-2.764-.702-.044.044-1.14h3.991v1.272l-1.886.175-2.72 3.07 3.378 4.519 1.93.043-.088 1.316H63.25l-.833-.877-3.246-4.21-1.096.57v3.377l1.096.044-.087 1.096h-3.817zM67.24 44.213l-.087-1.228 1.228-.044v-7.807l-1.316-.044.088-1.228h2.544l.132 1.579s.965-1.886 2.939-1.886c1.052 0 1.842.307 1.842.307v3.07h-1.184l-.088-1.974c-.263 0-.527-.044-.834-.044-1.666 0-2.412 1.58-2.412 1.58v6.491l1.404.044-.088 1.14H67.24v.044zM76.628 36.976l.044-3.246h1.053l.131.746c.527-.395 1.492-.965 2.808-.965 2.324 0 3.552 1.14 3.552 3.772v5.702l1.229.044-.088 1.14H82.9l-.263-1.315c-.175.35-1.008 1.623-3.29 1.623-2.368 0-3.64-1.097-3.64-2.983 0-3.026 4.255-3.202 6.886-3.465v-.746c0-1.798-.614-2.588-2.324-2.588-1.185 0-1.93.57-2.281.878l-.088 1.36h-1.272v.043zm6.01 4.825v-2.632c-2.5.176-5.22.307-5.22 2.193 0 1.316.79 1.974 2.456 1.974 2.018 0 2.676-1.403 2.763-1.535zM87.155 44.214l-.088-1.229 1.229-.044v-7.807l-1.229-.044.044-1.228h2.807v9.123l1.229.044-.088 1.14h-3.904v.045zM89.13 31.8c-.263 0-.57-.043-.746-.219-.22-.175-.307-.439-.307-.702 0-.263.088-.526.307-.745.176-.132.439-.22.746-.22.263 0 .526.088.746.22.175.175.307.438.307.745 0 .263-.088.527-.307.746-.22.088-.483.175-.746.175zM92.901 44.214l-.087-1.228 1.228-.044v-7.808l-1.228-.044.043-1.228h2.632l.132.921c.131-.131 1.14-1.184 3.553-1.184 2.28 0 3.728.921 3.728 3.202v6.184l1.228.044-.044 1.14h-2.851v-7.105c0-1.491-.921-2.105-2.588-2.105-1.974 0-2.939 1.052-2.939 1.052v6.974l1.229.044-.088 1.14H92.9v.045zM105.753 44.214l-.088-1.229 1.228-.044v-7.807l-1.184-.044.044-1.228h2.807v9.123l1.228.044-.088 1.14h-3.947v.045zM107.77 31.8c-.263 0-.57-.044-.745-.219-.22-.175-.307-.439-.307-.702 0-.263.087-.526.307-.745.175-.132.438-.22.745-.22.264 0 .527.088.746.22.176.175.307.438.307.745 0 .263-.088.527-.307.746-.219.088-.482.175-.746.175zM112.288 36.976l.044-3.246h1.053l.131.746c.527-.395 1.492-.965 2.807-.965 2.325 0 3.553 1.14 3.553 3.772v5.702l1.229.044-.088 1.14h-2.544l-.263-1.315c-.176.35-1.009 1.623-3.29 1.623-2.369 0-3.641-1.097-3.641-2.983 0-3.027 4.255-3.202 6.887-3.465v-.746c0-1.798-.614-2.588-2.325-2.588-1.184 0-1.93.57-2.281.877l-.088 1.36h-1.184v.044zm5.965 4.825v-2.632c-2.5.176-5.219.307-5.219 2.193 0 1.316.789 1.974 2.456 1.974 2.018 0 2.72-1.403 2.763-1.535zM122.771 44.214l-.087-1.228 1.228-.044v-7.808l-1.228-.044.043-1.228h2.632l.132.921c.131-.131 1.14-1.184 3.553-1.184 2.281 0 3.728.921 3.728 3.202v6.184l1.228.044-.044 1.14h-2.807v-7.105c0-1.491-.921-2.105-2.588-2.105-1.974 0-2.939 1.052-2.939 1.052v6.974l1.229.044-.088 1.14h-3.992v.045zM40.266 70.75l-.088-1.272 1.666-.044V58.47l-1.666-.044.044-1.14h4.956v1.228l-1.579.044v10.965l1.623.044-.088 1.184h-4.868zM46.889 70.75l-.088-1.228 1.228-.044v-7.764l-1.228-.043.044-1.229h2.631l.132.922c.132-.132 1.14-1.185 3.553-1.185 2.28 0 3.728.921 3.728 3.202v6.229l1.228.043-.044 1.141h-2.85V63.6c0-1.535-.922-2.105-2.588-2.105-1.974 0-2.94 1.053-2.94 1.053v6.974l1.229.044-.088 1.14H46.89v.044zM65.794 63.118l-.132-1.009a3.334 3.334 0 0 0-2.193-.833c-1.272 0-2.193.57-2.193 1.491 0 2.544 6.14 1.492 6.14 5 0 1.755-1.228 3.29-4.473 3.29-2.194 0-3.422-.526-3.422-.526l-.131-2.632 1.052-.088.132 1.711c.57.176 1.404.351 2.369.351 1.973 0 2.807-.921 2.807-1.886 0-2.588-6.097-1.316-6.097-5 0-1.755 1.535-2.852 3.597-2.852 1.14 0 2.061.483 2.587.878l.22-.702h.833v2.851h-1.096v-.044zM71.409 61.67v5.922c0 1.404.394 2.062 1.403 2.062.614 0 1.58-.176 1.58-.176v1.14s-.922.308-2.106.308c-1.71 0-2.544-.79-2.544-2.939v-6.272H68.47v-1.229l1.272-.043.175-3.115h1.492v3.115h3.158v1.316h-3.158v-.088zM75.97 70.75l-.088-1.228 1.228-.044v-7.763l-1.228-.044.044-1.228h2.807v9.123l1.228.044-.088 1.14H75.97zm1.973-12.413c-.263 0-.57-.044-.745-.219-.22-.175-.307-.439-.307-.702 0-.263.087-.526.307-.745.175-.132.438-.22.745-.22.264 0 .527.088.746.22.176.175.307.438.307.745 0 .263-.088.527-.307.746-.22.088-.482.175-.746.175zM83.646 61.67v5.922c0 1.404.395 2.062 1.403 2.062.614 0 1.58-.176 1.58-.176v1.14s-.922.308-2.106.308c-1.71 0-2.544-.79-2.544-2.939v-6.272h-1.272v-1.229l1.272-.043.175-3.115h1.492v3.115h3.158v1.316h-3.158v-.088zM96.366 61.67l-1.228-.043.088-1.228h2.807v9.123l1.228.044-.044 1.14h-2.632l-.131-.92c-.132.13-1.14 1.227-3.553 1.227-2.281 0-3.685-1.36-3.685-3.64V61.67l-1.228-.044.088-1.228h2.807v6.71c0 1.492.965 2.5 2.632 2.5 1.974 0 2.939-1.052 2.939-1.052v-6.886h-.088zM102.946 61.67v5.922c0 1.404.394 2.062 1.403 2.062.614 0 1.579-.176 1.579-.176v1.14s-.921.308-2.105.308c-1.711 0-2.544-.79-2.544-2.939v-6.272h-1.272v-1.229l1.272-.043.175-3.115h1.492v3.115h3.158v1.316h-3.158v-.088zM108.516 65.882c.132 2.631 1.492 3.903 3.641 3.903 2.105 0 3.114-1.36 3.114-1.36l.79.834s-1.141 1.798-3.948 1.798c-3.202 0-5.263-1.93-5.263-5.483 0-3.465 1.973-5.438 4.956-5.438 2.763 0 4.342 1.49 4.342 4.517 0 .746-.263 1.272-.263 1.272h-7.369v-.043zm0-1.14h6.097v-.483c0-1.93-.921-2.94-2.807-2.94-2.018 0-3.07 1.273-3.29 3.422z" fill="#006FBA"/></svg>