<svg width="211" height="100" viewBox="0 0 211 100" fill="none" xmlns="http://www.w3.org/2000/svg"><path d="M32.735 12.013l.007.007c-9.72 9.72-15.73 23.152-15.73 37.98H0C0 30.476 7.915 12.791 20.706 0c4.3 4.284 6.19 6.173 12.03 12.013z" fill="#0054A6"/><path fill-rule="evenodd" clip-rule="evenodd" d="M69.064 23.596c0-2.496.936-4.778 2.463-6.519a9.738 9.738 0 0 1 2.463 6.503c-.04 2.704-.225 5.409-.409 8.114-.19 2.78-.379 5.56-.412 8.339-.115 5.107 1.412 9.918 3.284 14.597.624 1.298 1.297 2.562 1.97 3.826l1.987-.394c1.774-.36 2.94-2.101 2.579-3.875a3.296 3.296 0 0 0-3.219-2.643l-.722.082 1.609-13.416c.525-5.977 3.612-11.215 8.144-14.63a20.358 20.358 0 0 1 2.463-1.593v47.668H80.263A18.135 18.135 0 0 1 73.53 80.69a6.55 6.55 0 0 0-2.003 2.184 6.55 6.55 0 0 0-2.003-2.184 18.135 18.135 0 0 1-6.733-11.035H51.79V22.003a21.712 21.712 0 0 1 2.463 1.593c4.532 3.416 7.619 8.654 8.144 14.63l1.61 13.416-.723-.082a3.293 3.293 0 0 0-.64 6.519l1.987.394v-.001c.673-1.264 1.346-2.528 1.97-3.825 1.872-4.68 3.399-9.491 3.284-14.598-.034-2.82-.224-5.64-.414-8.461-.18-2.664-.36-5.328-.407-7.992zM55.107 28.87v24.315h1.855a6.62 6.62 0 0 1 3.448-4.236l-1.33-11.067a17.166 17.166 0 0 0-3.973-9.012zM87.98 53.185V28.851a17.222 17.222 0 0 0-3.99 9.03L82.66 48.95a6.572 6.572 0 0 1 3.448 4.236h1.872zm-12.84 6.109a38.128 38.128 0 0 1-3.613-8.194 38.128 38.128 0 0 1-3.612 8.194 7.352 7.352 0 0 1 3.612 2.43 7.352 7.352 0 0 1 3.613-2.43zm-18.194-2.808h-1.872v9.869h7.406c0-1.659.23-3.284.656-4.812l-1.576-.36a6.628 6.628 0 0 1-4.614-4.697zm31.018 0h-1.856a6.565 6.565 0 0 1-4.63 4.696l-1.576.361c.426 1.528.656 3.137.656 4.812h7.406v-9.869zm-18.079 9.869a4.092 4.092 0 0 0-3.53-4.056 14.325 14.325 0 0 0-.575 4.056h4.105zm7.406 0a14.41 14.41 0 0 0-.575-4.056c-2.003.279-3.547 1.987-3.53 4.056h4.105zm-7.406 3.284h-3.744a14.812 14.812 0 0 0 3.744 6.93v-6.93zm7.028 0h-3.744v6.93a14.825 14.825 0 0 0 3.744-6.93z" fill="#0054A6"/><path d="M115.895 22.791l1.428-.13h.017v-2.004h-6.059l-.148 2.02 1.576.13v6.257c0 1.61.493 2.923 1.462 3.957.969 1.035 2.479 1.544 4.532 1.544 2.069 0 3.579-.526 4.548-1.544.969-1.034 1.462-2.348 1.462-3.973V22.84l1.428-.165v-2.02h-5.928l-.147 2.168 1.658.099v5.484c0 1.084-.23 1.938-.706 2.562-.46.624-1.199.936-2.217.936-1.937 0-2.906-1.166-2.906-3.498v-5.616zM131.855 34.154h-4.794l-.132-2.167 1.15-.131V20.837l-1.084-.114.148-2.168h3.99v9.31l1.396-.607.87-1.429-.443-.066.131-2.02h4.86v2.168l-2.085.296-1.511 2.102 2.201 3.464 2.019.066-.147 2.299h-3.547l-.838-.837-2.282-3.613-.624.263v2.2l.87.099-.148 1.904zM139.327 34.154h5.402l.148-2.052-1.462-.082v-5.14c.033-.115.099-.23.181-.361.082-.131.263-.296.558-.493a1.753 1.753 0 0 1 1.002-.295h.312l.164 1.79h2.184l-.016-3.777-.23-.082c-.148-.082-.394-.148-.739-.214a5.618 5.618 0 0 0-1.067-.098c-.345 0-.674.065-.986.18-.312.115-.574.247-.755.394-.197.132-.361.312-.525.493-.148.18-.247.312-.296.394-.033.082-.066.131-.099.18h-.065l-.312-1.247h-3.498l-.148 2.167 1.265.132v5.813l-1.166.13.148 2.168z" fill="#0054A6"/><path fill-rule="evenodd" clip-rule="evenodd" d="M151.954 27.274h-2.266l.131-3.678h1.807l.246.624c.837-.558 1.74-.837 2.676-.837 1.199 0 2.152.328 2.858.985s1.05 1.675 1.05 3.07v4.598l1.15.082-.148 2.036h-3.497l-.394-1.018c-.005.015-.012.03-.019.045l-.013.023a.158.158 0 0 1-.01.017l-.041.063c-.049.066-.147.18-.312.328a3.08 3.08 0 0 1-.574.427c-.214.132-.509.247-.887.345a4.867 4.867 0 0 1-1.232.148c-1.165 0-2.085-.28-2.758-.854-.673-.575-1.002-1.33-1.002-2.299 0-.328.049-.64.148-.92.099-.278.23-.525.361-.738.132-.214.345-.394.624-.575.217-.14.414-.26.591-.369l.148-.09c.214-.132.509-.247.903-.346.394-.098.706-.18.936-.246.23-.05.575-.115 1.035-.18.232-.035.432-.06.599-.081h.005l.256-.034.036-.005.015-.003.058-.009c.197-.016.525-.049.968-.098v-.214c0-.739-.131-1.248-.377-1.543-.263-.296-.69-.444-1.281-.444-.673 0-1.232.181-1.642.542l-.148 1.248zm1.494 5.222a2.3 2.3 0 0 0 1.117-.28c.328-.18.542-.344.64-.492.099-.131.164-.263.214-.361v-1.79a24.69 24.69 0 0 0-1.511.148 8.5 8.5 0 0 0-1.051.213c-.361.099-.607.247-.755.444-.148.18-.214.427-.214.722-.016.92.509 1.396 1.56 1.396z" fill="#0054A6"/><path d="M160.64 34.154h5.091l.131-2.052-1.149-.082v-8.276h-4.007l-.131 2.167 1.083.132v5.813l-1.165.13.147 2.168zM164.483 21.79c.312-.296.46-.673.46-1.166 0-.476-.165-.854-.46-1.182-.312-.312-.739-.46-1.314-.46-.558 0-.985.148-1.297.46-.312.312-.46.69-.46 1.166 0 .46.164.853.493 1.165.328.312.755.46 1.297.46.542 0 .969-.148 1.281-.443zM172.184 34.154h-5.09l-.148-2.167 1.166-.131v-5.813l-1.084-.132.131-2.167h3.613l.246.722h.017l.114-.115c.05-.049.165-.131.362-.262.197-.132.41-.247.64-.345.23-.099.558-.18.952-.263a6.252 6.252 0 0 1 1.265-.115c2.529 0 3.809 1.166 3.809 3.498v5.156l1.15.082-.132 2.036h-4.072v-6.716c0-.575-.131-.969-.41-1.199-.279-.23-.739-.36-1.396-.36-.394 0-.788.065-1.15.18-.361.131-.623.246-.788.377l-.213.214v5.402l1.149.082-.131 2.036zM180.378 34.154h5.09l.131-2.052-1.149-.082v-8.276h-4.007l-.131 2.167 1.084.132v5.813l-1.166.13.148 2.168zM184.22 21.79c.312-.296.46-.673.46-1.166a1.69 1.69 0 0 0-.46-1.182c-.312-.312-.739-.46-1.314-.46-.558 0-.985.148-1.297.46-.312.312-.46.69-.46 1.166 0 .46.165.853.493 1.165.328.312.755.46 1.297.46.542 0 .969-.148 1.281-.443z" fill="#0054A6"/><path fill-rule="evenodd" clip-rule="evenodd" d="M189.803 27.274h-2.266l.131-3.678h1.807l.246.624c.837-.558 1.74-.837 2.676-.837 1.199 0 2.151.328 2.858.985.706.657 1.05 1.675 1.05 3.07v4.598l1.15.082-.148 2.036h-3.497l-.395-1.018a.645.645 0 0 1-.082.148c-.049.066-.147.18-.312.328a3.08 3.08 0 0 1-.574.427c-.214.132-.509.247-.887.345a4.867 4.867 0 0 1-1.232.148c-1.165 0-2.085-.28-2.758-.854-.673-.575-1.002-1.33-1.002-2.299 0-.328.049-.64.148-.92.098-.278.23-.525.361-.738.132-.214.345-.394.624-.575.217-.14.414-.26.591-.369l.148-.09c.214-.132.509-.247.903-.346.394-.098.706-.18.936-.246.23-.05.575-.115 1.035-.18.232-.035.432-.06.599-.081h.001c.151-.02.275-.035.368-.05.197-.017.526-.05.969-.1v-.213c0-.739-.131-1.248-.377-1.543-.263-.296-.69-.444-1.281-.444-.673 0-1.232.181-1.642.542l-.148 1.248zm1.494 5.222a2.3 2.3 0 0 0 1.117-.28c.328-.18.542-.344.64-.492.099-.131.164-.263.214-.361v-1.79a24.69 24.69 0 0 0-1.511.148 8.5 8.5 0 0 0-1.051.213c-.361.099-.607.247-.755.444-.148.18-.214.427-.214.722-.016.92.509 1.396 1.56 1.396z" fill="#0054A6"/><path d="M198.489 34.154h5.091l.115-2.069-1.15-.082v-5.402l.23-.18c.164-.132.427-.247.788-.378a3.83 3.83 0 0 1 1.15-.18c.656 0 1.116.13 1.395.36.28.23.411.624.411 1.199v6.716h4.072l.132-2.036-1.15-.082v-5.156c0-2.332-1.281-3.498-3.809-3.498-.444 0-.871.033-1.265.115-.394.082-.722.164-.952.263-.23.098-.444.213-.641.345a2.948 2.948 0 0 0-.361.262l-.115.115h-.016l-.247-.722h-3.612l-.131 2.167 1.083.132v5.813l-1.165.13.147 2.168zM120.213 47.783l-.098-1.313h-3.711v3.202l5.435-.017v2.283h-5.435v3.3h4.121l.23-1.494 2.299.148-.148 3.71h-11.133l-.131-2.167 1.56-.131v-9.08l-1.576-.132.147-2.02h8.211l2.693-.148v3.86h-2.464zM137.783 57.603h4.072l.181-2.102-1.149-.082v-5.271c0-1.166-.263-2.036-.805-2.562-.542-.542-1.379-.804-2.529-.804-.673 0-1.297.098-1.872.312-.574.197-.936.36-1.083.492-.148.132-.263.23-.329.312h-.049c-.542-.739-1.478-1.116-2.791-1.116a4.03 4.03 0 0 0-1.61.328c-.492.214-.821.378-.952.509l-.03.03-.052.05-.028.027-.022.02-.002.003h-.001c-.073.07-.135.13-.177.182h-.049l-.23-.772h-3.613l-.131 2.168 1.084.131v5.813l-1.166.131.148 2.168h5.09l.131-2.036-1.149-.082v-5.567c.427-.427 1.002-.64 1.708-.64.492 0 .837.098 1.034.279.197.197.296.558.296 1.116v6.946h4.072l.148-2.036-1.15-.082V49.9a2.42 2.42 0 0 1 1.659-.64c.492 0 .854.099 1.051.28.197.196.295.558.295 1.116v6.946z" fill="#0054A6"/><path fill-rule="evenodd" clip-rule="evenodd" d="M145.928 57.603h-2.332v-13.3l-1.084-.132.132-2.168h4.006v5.78h.099c.042-.056.121-.125.226-.216l.053-.047c.131-.098.443-.246.952-.426.509-.181 1.068-.263 1.692-.263 1.461 0 2.61.46 3.497 1.396.87.936 1.314 2.167 1.314 3.743 0 1.725-.46 3.17-1.38 4.319-.919 1.15-2.118 1.708-3.612 1.708-.657 0-1.232-.082-1.773-.263-.526-.18-.887-.345-1.101-.509l-.295-.263h-.082l-.312.64zm2.824-8.523c-.476 0-.887.083-1.231.263-.362.18-.592.361-.69.542l-.164.263v4.844c.021.021.043.05.067.08.031.04.067.087.113.133.082.082.296.197.624.345.329.148.723.214 1.166.214 1.806 0 2.693-1.248 2.693-3.744 0-1.1-.197-1.856-.607-2.3-.395-.41-1.051-.64-1.971-.64zM156.453 50.722h2.266l.148-1.248c.411-.36.969-.541 1.642-.541.591 0 1.018.147 1.281.443.246.296.378.805.378 1.544v.213c-.444.05-.772.082-.969.098-.094.016-.218.032-.369.051a41.134 41.134 0 0 0-.6.08c-.46.067-.805.132-1.035.181-.229.066-.541.148-.936.247-.394.098-.689.213-.903.345l-.148.09-.004.003-.009.005c-.174.107-.366.225-.578.361-.279.181-.492.362-.624.575-.131.214-.262.46-.361.739-.098.28-.148.591-.148.92 0 .968.329 1.724 1.002 2.298.673.575 1.593.854 2.759.854.443 0 .854-.049 1.231-.147.378-.099.673-.214.887-.345a3.12 3.12 0 0 0 .575-.427c.164-.148.262-.263.312-.329.032-.049.065-.098.082-.147l.394 1.018h3.497l.148-2.037-1.149-.082v-4.597c0-1.396-.345-2.414-1.051-3.07-.706-.658-1.659-.986-2.857-.986-.936 0-1.839.279-2.677.837l-.246-.624h-1.806l-.132 3.678zm4.877 4.943c-.328.18-.706.28-1.117.28-1.05 0-1.576-.46-1.559-1.397 0-.295.065-.541.213-.722.148-.197.394-.345.755-.443a8.557 8.557 0 0 1 1.051-.214c.345-.05.854-.098 1.511-.148v1.79c-.049.099-.115.23-.214.361-.098.148-.312.312-.64.493z" fill="#0054A6"/><path d="M175.484 50.394h-1.986l-.165-.936a2.6 2.6 0 0 0-1.625-.558c-.394 0-.706.082-.953.23-.246.148-.377.361-.377.64 0 .296.197.542.574.755.378.214.838.411 1.38.592.525.18 1.067.377 1.609.607.542.23 1.002.575 1.379 1.018.378.444.575.985.575 1.61 0 1.116-.394 2.003-1.182 2.66-.789.656-2.036.968-3.711.968-.608 0-1.199-.049-1.774-.131a9.399 9.399 0 0 1-1.281-.263l-.394-.131-.262-3.12 1.872-.131.213 1.477c.558.132 1.067.214 1.56.214 1.231 0 1.855-.394 1.855-1.182 0-.263-.131-.493-.394-.674a3.336 3.336 0 0 0-1.001-.443 15.196 15.196 0 0 1-1.297-.443c-.46-.18-.904-.378-1.298-.591a2.635 2.635 0 0 1-1.001-.953c-.263-.427-.394-.92-.394-1.51 0-1.002.377-1.79 1.116-2.381.739-.592 1.659-.887 2.775-.887.821 0 1.626.263 2.43.772l.329-.559h1.494l-.066 3.35zM183.202 50.394h1.987l.066-3.35h-1.495l-.328.559c-.805-.51-1.609-.772-2.43-.772-1.117 0-2.036.295-2.775.887-.739.59-1.117 1.379-1.117 2.38 0 .592.131 1.084.394 1.511.263.427.608.74 1.002.953.394.213.837.41 1.297.59.46.181.903.33 1.297.444.411.115.739.263 1.002.443.263.181.394.41.394.674 0 .788-.624 1.182-1.856 1.182-.492 0-1.001-.082-1.56-.214l-.213-1.477-1.872.131.263 3.12.394.131c.279.082.706.18 1.281.263a12.51 12.51 0 0 0 1.773.131c1.675 0 2.923-.312 3.711-.968.788-.657 1.182-1.544 1.182-2.66 0-.625-.197-1.166-.574-1.61a3.694 3.694 0 0 0-1.38-1.018 24.366 24.366 0 0 0-1.609-.607 7.89 7.89 0 0 1-1.379-.592c-.378-.213-.575-.46-.575-.755 0-.279.131-.492.378-.64.246-.148.558-.23.952-.23.591 0 1.133.18 1.626.558l.164.936zM186.141 62.545l.263-2.102c.624.214 1.182.329 1.675.329.969 0 1.806-1.051 2.512-3.153l-3.415-8.145-1.495-.098.132-2.167h3.842l2.529 7.077h.049l1.642-4.844-1.018-.082v-2.168h5.074v2.168l-1.379.131-3.202 8.522c-1.297 3.448-2.939 5.172-4.91 5.172-.607 0-1.1-.049-1.494-.164-.394-.115-.624-.213-.706-.312l-.099-.164zM112.02 68.194l5.139 12.857h1.183l5.09-12.857 1.675-.017v-.624h-4.089l-.049.64 1.56.017-4.779 12.118-4.794-12.134 1.543-.017v-.624h-4.138l-.049.624 1.708.017zM128.785 81.05h-3.383l-.049-.656 1.314-.016v-9.015l-1.314-.016.049-.657h2.135v9.737l1.281.016-.033.608zM127.685 67.767c0 .377-.197.558-.608.558-.394 0-.575-.18-.575-.558 0-.394.198-.575.575-.575.411-.016.608.18.608.575z" fill="#0054A6"/><path fill-rule="evenodd" clip-rule="evenodd" d="M131.445 75.796h7.849l.049-.115.007-.033.008-.033a2.39 2.39 0 0 0 .051-.295c.016-.164.033-.328.033-.492 0-2.94-1.363-4.401-4.089-4.401-1.494 0-2.676.476-3.514 1.428-.837.936-1.264 2.266-1.264 3.974 0 1.708.46 3.054 1.346 4.007.903.952 2.102 1.428 3.629 1.428.526 0 1.002-.049 1.462-.18a4.68 4.68 0 0 0 1.083-.41 4.98 4.98 0 0 0 .739-.526 3.57 3.57 0 0 0 .427-.41l.056-.073c.031-.042.053-.075.075-.107v-.001l-.443-.46-.312.378c-.213.246-.607.492-1.166.755a4.723 4.723 0 0 1-1.888.377c-1.281 0-2.282-.41-3.021-1.247-.739-.821-1.117-2.004-1.117-3.547v-.017zm1.133-3.629c.657-.722 1.576-1.083 2.775-1.083 2.184 0 3.284 1.198 3.268 3.596 0 .164 0 .345-.017.525h-7.143c.083-1.313.46-2.315 1.117-3.037z" fill="#0054A6"/><path d="M144.499 81.05h-3.382l-.05-.656 1.314-.016v-9.015l-1.314-.016.05-.657h2.036l.082 1.034c.837-.837 2.069-1.264 3.678-1.264 2.43 0 3.662 1.018 3.662 3.054v6.913l1.281.016-.05.624h-2.134v-7.389c0-1.642-1.018-2.48-3.038-2.48-.444 0-.87.05-1.265.132-.394.082-.722.18-.968.296-.207.096-.391.204-.562.305h-.001l-.094.056-.121.087h-.001c-.125.09-.226.162-.289.225l-.098.131v7.997l1.281.016-.017.608zM153.301 81.05h3.382l.017-.607-1.281-.016V72.43l.098-.131c.063-.063.164-.135.289-.224l.122-.088.057-.034.038-.022c.171-.1.354-.209.562-.305.246-.115.574-.214.968-.296a6.222 6.222 0 0 1 1.265-.131c2.019 0 3.037.837 3.037 2.48v7.388h2.135l.049-.624-1.28-.016v-6.913c0-2.036-1.232-3.054-3.662-3.054-1.609 0-2.841.427-3.678 1.264l-.082-1.034h-2.036l-.05.657 1.314.016v9.015l-1.314.016.05.657z" fill="#0054A6"/><path fill-rule="evenodd" clip-rule="evenodd" d="M167.225 73.645h-.657l.017-3.005h.574l.082.87c.854-.705 1.823-1.067 2.89-1.067 1.183 0 2.036.296 2.595.87.558.575.837 1.495.837 2.726v6.371l1.281.017-.049.624h-1.987l-.131-1.51a2.5 2.5 0 0 1-.312.443 7.184 7.184 0 0 1-.592.558c-.262.23-.624.394-1.067.542a5.207 5.207 0 0 1-1.494.213c-1.182 0-2.069-.246-2.677-.739-.607-.492-.903-1.198-.903-2.134 0-.329.049-.64.148-.904.099-.262.246-.508.46-.706.213-.197.427-.377.64-.525.214-.148.493-.296.87-.41l.223-.069.134-.04c.221-.069.41-.127.563-.17a7.102 7.102 0 0 1 1.051-.181c.46-.05.788-.099 1.002-.132.213-.033.558-.065 1.034-.098.205-.014.377-.028.516-.04h.007c.181-.016.306-.026.38-.026v-1.067c0-1.018-.213-1.774-.64-2.25-.427-.476-1.133-.722-2.135-.722-1.051 0-1.938.361-2.66 1.084v1.477zm5.468 5.206v-3.153c-1.905.148-3.153.295-3.711.443-1.609.394-2.414 1.117-2.43 2.2 0 1.544.969 2.332 2.923 2.332.459 0 .886-.066 1.264-.18.394-.132.69-.28.919-.444.23-.18.427-.345.592-.525.164-.18.279-.329.361-.46l.082-.213z" fill="#0054A6"/><path d="M17.012 50H0c0 19.524 7.915 37.209 20.706 50l12.02-12.02C23.02 78.26 17.012 64.828 17.012 50z" fill="#FFC20E"/></svg>