<svg width="21" height="24" viewBox="0 0 21 24" fill="none" xmlns="http://www.w3.org/2000/svg"><path d="M5.527 2.182C5.527.977 6.488 0 7.675 0h.124c1.187 0 2.149.977 2.149 2.182s-.962 2.182-2.149 2.182h-.124c-1.187 0-2.148-.977-2.148-2.182zM7.737 5.455c-1.22 0-2.21 1.005-2.21 2.245v5.997c0 1.463 1.16 2.65 2.596 2.666h5.848l3.929 6.718a1.682 1.682 0 0 0 2.277.619 1.636 1.636 0 0 0 .595-2.256l-4.391-7.506a1.607 1.607 0 0 0-1.412-.847H9.948v-2.182H14.4c.594 0 1.075-.488 1.075-1.09 0-.603-.481-1.092-1.075-1.092H9.948V7.7c0-1.24-.99-2.245-2.21-2.245z" fill="#39F"/><path d="M2.822 10.466c.687-.558 1.6.017 1.6.91 0 .392-.19.753-.475 1.018a5.406 5.406 0 0 0-1.736 3.97c0 3.012 2.474 5.454 5.526 5.454a5.54 5.54 0 0 0 4.707-2.593c.248-.397.658-.68 1.12-.68.79 0 1.352.782.964 1.481A7.751 7.751 0 0 1 7.738 24C3.463 24 0 20.581 0 16.364a7.583 7.583 0 0 1 2.822-5.898z" fill="#39F"/></svg>