<svg width="15" height="19" viewBox="0 0 15 19" fill="none" xmlns="http://www.w3.org/2000/svg"><path d="M8.351 13.835c-1.12-.087-1.59-.642-2.468-1.176-.483 2.533-1.073 4.96-2.82 6.229-.54-3.828.791-6.703 1.41-9.755-1.054-1.774.127-5.346 2.35-4.465 2.736 1.082-2.37 6.597 1.058 7.286 3.579.72 5.04-6.208 2.82-8.462C7.495.24 1.37 3.418 2.121 8.076c.184 1.138 1.361 1.484.471 3.055C.54 10.677-.072 9.058.007 6.901.134 3.369 3.18.896 6.236.554 10.1.12 13.727 1.973 14.228 5.608c.563 4.102-1.745 8.546-5.877 8.227z" fill="#39F"/></svg>