<svg width="19" height="16" viewBox="0 0 19 16" fill="none" xmlns="http://www.w3.org/2000/svg"><path d="M18.25 2.644a7.065 7.065 0 0 1-2.033.557 3.55 3.55 0 0 0 1.557-1.958c-.684.405-1.442.7-2.248.859a3.541 3.541 0 0 0-6.034 3.23 10.051 10.051 0 0 1-7.298-3.7A3.54 3.54 0 0 0 3.29 6.359a3.516 3.516 0 0 1-1.604-.443v.044a3.543 3.543 0 0 0 2.84 3.472 3.528 3.528 0 0 1-1.599.061 3.544 3.544 0 0 0 3.308 2.46 7.104 7.104 0 0 1-5.242 1.465A10.015 10.015 0 0 0 6.42 15.01c6.512 0 10.074-5.395 10.074-10.074 0-.154-.003-.307-.01-.458a7.18 7.18 0 0 0 1.767-1.833z" fill="#39F"/></svg>