<svg width="276" height="41" viewBox="0 0 276 41" fill="none" xmlns="http://www.w3.org/2000/svg"><path d="M30.576 33.014H15.88l-2.577 6.756H0L16.925 1.045H29.74L46.665 39.77H33.153l-2.577-6.756zm-3.622-9.403l-3.76-9.75-3.762 9.75h7.522zM53.142 35.87c-3.343-3.205-4.945-7.732-4.945-13.513V1.045h13.025V21.94c0 2.855.487 4.875 1.532 6.198 1.045 1.324 2.507 1.95 4.388 1.95 1.95 0 3.413-.626 4.388-1.95 1.044-1.323 1.532-3.343 1.532-6.199V1.046h12.816v21.312c0 5.781-1.672 10.308-4.946 13.512-3.343 3.204-7.94 4.806-13.86 4.806-5.99 0-10.587-1.602-13.93-4.806zM97.44 39.56c-3.065-.696-5.572-1.67-7.522-2.925l4.178-9.541c1.811 1.044 3.9 1.95 6.199 2.577 2.299.626 4.458.975 6.547.975 1.811 0 3.065-.21 3.901-.558.766-.348 1.184-.905 1.184-1.602 0-.835-.488-1.392-1.533-1.81-1.044-.418-2.716-.836-5.014-1.324-2.995-.627-5.503-1.323-7.453-2.02-2.02-.696-3.691-1.88-5.224-3.552-1.462-1.671-2.228-3.83-2.228-6.686 0-2.438.696-4.666 2.02-6.617 1.392-2.02 3.412-3.552 6.129-4.736C101.34.627 104.613 0 108.514 0c2.647 0 5.293.279 7.801.836 2.577.557 4.805 1.393 6.756 2.507l-3.901 9.473c-3.831-1.95-7.383-2.856-10.795-2.856-3.344 0-5.015.836-5.015 2.438 0 .766.487 1.323 1.462 1.74.976.419 2.647.837 4.946 1.255 2.925.557 5.432 1.183 7.452 1.88 2.02.697 3.761 1.88 5.293 3.483 1.463 1.601 2.229 3.83 2.229 6.616 0 2.438-.696 4.667-2.02 6.617-1.393 1.95-3.413 3.552-6.129 4.736-2.716 1.184-5.99 1.741-9.89 1.741-3.065.21-6.199-.209-9.263-.905zM184.849 30.019h-3.552v9.75h-13.025V1.046h18.597c3.552 0 6.686.557 9.333 1.74 2.646 1.185 4.736 2.857 6.129 5.085 1.463 2.23 2.159 4.806 2.159 7.731 0 2.786-.627 5.154-1.88 7.244-1.254 2.09-3.065 3.691-5.433 4.945l8.149 11.98h-13.93l-6.547-9.751zm5.154-17.691c-.905-.766-2.229-1.184-3.97-1.184h-4.736v9.054h4.736c1.741 0 3.065-.418 3.97-1.184.905-.766 1.323-1.88 1.323-3.343s-.418-2.577-1.323-3.343zM211.385 1.045h13.025V39.77h-13.025V1.045zM259.095 33.014h-14.696l-2.577 6.756h-13.303l16.925-38.725h12.815l16.925 38.725h-13.512l-2.577-6.756zm-3.622-9.403l-3.761-9.75-3.761 9.75h7.522zM137.418 11.144h-11.213v-10.1h35.521v10.1h-11.214V39.77h-13.094V11.144z" fill="#090012"/></svg>