<svg width="510" height="337" viewBox="0 0 510 337" fill="none" xmlns="http://www.w3.org/2000/svg"><path d="M131.067 62.374c7.993 0 14.473-6.48 14.473-14.473s-6.48-14.472-14.473-14.472-14.472 6.48-14.472 14.472c0 7.993 6.479 14.473 14.472 14.473z" fill="#ED063D"/><path d="M161.439 35.06c9.682 0 17.53-7.849 17.53-17.53 0-9.682-7.848-17.53-17.53-17.53-9.681 0-17.53 7.848-17.53 17.53 0 9.681 7.849 17.53 17.53 17.53z" fill="#2595E8"/><path d="M131.067 179.58c5.629 0 10.192-4.563 10.192-10.191 0-5.629-4.563-10.192-10.192-10.192-5.628 0-10.192 4.563-10.192 10.192 0 5.628 4.564 10.191 10.192 10.191z" fill="#ED063D"/><path d="M222.182 275.995c8.669 0 15.696-7.027 15.696-15.695 0-8.669-7.027-15.696-15.696-15.696-8.668 0-15.695 7.027-15.695 15.696 0 8.668 7.027 15.695 15.695 15.695z" fill="#FFBF15"/><path d="M313.297 250.72c11.483 0 20.792-9.309 20.792-20.792 0-11.482-9.309-20.791-20.792-20.791-11.482 0-20.791 9.309-20.791 20.791 0 11.483 9.309 20.792 20.791 20.792zM343.465 336.739c8.669 0 15.696-7.027 15.696-15.696 0-8.668-7.027-15.695-15.696-15.695-8.668 0-15.695 7.027-15.695 15.695 0 8.669 7.027 15.696 15.695 15.696zM495.324 123.322c8.105 0 14.676-6.571 14.676-14.677 0-8.105-6.571-14.676-14.676-14.676-8.106 0-14.677 6.571-14.677 14.676 0 8.106 6.571 14.677 14.677 14.677zM282.926 34.652c9.456 0 17.122-7.666 17.122-17.122 0-9.457-7.666-17.123-17.122-17.123-9.457 0-17.123 7.666-17.123 17.123 0 9.456 7.666 17.122 17.123 17.122zM222.182 95.396c9.457 0 17.123-7.666 17.123-17.123 0-9.456-7.666-17.122-17.123-17.122-9.456 0-17.122 7.666-17.122 17.122 0 9.457 7.666 17.123 17.122 17.123zM434.58 122.302c7.543 0 13.657-6.114 13.657-13.657 0-7.542-6.114-13.657-13.657-13.657-7.542 0-13.657 6.115-13.657 13.657 0 7.543 6.115 13.657 13.657 13.657zM373.837 243.585c7.542 0 13.657-6.114 13.657-13.657 0-7.542-6.115-13.657-13.657-13.657-7.543 0-13.657 6.115-13.657 13.657 0 7.543 6.114 13.657 13.657 13.657zM282.926 269.88a9.58 9.58 0 0 0 9.58-9.58c0-5.291-4.289-9.581-9.58-9.581s-9.581 4.29-9.581 9.581c0 5.291 4.29 9.58 9.581 9.58zM313.263 269.277l-21.332 21.331 21.332 21.332 21.332-21.332-21.332-21.331z" fill="#ED063D"/><path d="M373.847 271.403l-19.314 19.314 19.314 19.314 19.314-19.314-19.314-19.314z" fill="#2595E8"/><path d="M373.868 78.697l-29.98 29.98 29.98 29.979 29.98-29.979-29.98-29.98zM191.77 221.026l-8.936 8.936 8.936 8.936 8.937-8.936-8.937-8.936zM100.765 117.458l-21.476 21.476 21.476 21.475 21.475-21.475-21.475-21.476zM40.095 65.019L24.817 80.297l15.278 15.278 15.278-15.278-15.278-15.278zM176.155 306.392h31.391v-31.391h-31.391v31.391zM453.7 150.117h22.218v-22.218H453.7v22.218z" fill="#ED063D"/><path d="M333.848 88.061h19.365V68.697h-19.365v19.364z" fill="#FFBF15"/><path d="M394.085 88.463h20.383V68.08h-20.383v20.384zM60.408 179.412h20.18v-20.18h-20.18v20.18zM2.31 169.233l7.494 7.495 7.495-7.495-7.495-7.495-7.495 7.495zM391.827 211.969h24.664v-24.664h-24.664v24.664zM191.652 26.449l-21.475 21.476L191.652 69.4l21.476-21.475-21.476-21.476zM434.635 152.933l-16.287 16.287 16.287 16.287 16.287-16.287-16.287-16.287zM211.164 210.542h21.811v-21.81h-21.811v21.81z" fill="#ED063D"/><path d="M40.156 162.254c12.834 0 23.237-10.403 23.237-23.237 0-12.834-10.404-23.237-23.237-23.237-12.834 0-23.237 10.403-23.237 23.237 0 12.834 10.403 23.237 23.237 23.237z" fill="#2595E8"/><path d="M191.874 159.87l-9.368 9.369 9.368 9.368 9.369-9.368-9.369-9.369zM8.765 117.002A8.765 8.765 0 1 0 0 108.237a8.765 8.765 0 0 0 8.765 8.765zM93.372 85.616h14.676V70.94H93.372v14.676zM70.342 25.227L47.713 47.856l22.629 22.629 22.629-22.629-22.629-22.629zM243.313 57.136h18.345V38.791h-18.345v18.345z" fill="#ED063D"/></svg>