<svg width="455" height="237" viewBox="0 0 455 237" fill="none" xmlns="http://www.w3.org/2000/svg"><path d="M77.244 133.194a8.89 8.89 0 1 0 0-17.78 8.89 8.89 0 0 0 0 17.78zM203.678 81.04a8.494 8.494 0 0 0 8.494-8.495 8.494 8.494 0 1 0-16.989 0 8.495 8.495 0 0 0 8.495 8.495z" fill="#ED063D"/><path d="M361.918 45.876c9.165 0 16.595-7.43 16.595-16.595s-7.43-16.594-16.595-16.594-16.594 7.43-16.594 16.594c0 9.165 7.429 16.595 16.594 16.595z" fill="#FFBF15"/><path d="M394.12 75.706c8.074 0 14.619-6.545 14.619-14.619s-6.545-14.619-14.619-14.619-14.619 6.545-14.619 14.62c0 8.073 6.545 14.618 14.619 14.618zM425.665 0L396.33 29.335l29.335 29.335L455 29.335 425.665 0zM90.922 187.485l-13.69-13.69-13.69 13.69 13.69 13.69 13.69-13.69z" fill="#ED063D"/><path d="M218.099 173.101h-28.646v28.645h28.646v-28.645z" fill="#FFBF15"/><path d="M343.15 175.471h-24.299v24.299h24.299v-24.299zM406.367 112.056h-24.299v24.299h24.299v-24.299zM310.109 40.706V23.124h-17.582v17.582h17.582zM128.41 136.948H90.48v37.931h37.93v-37.931zM28.053 110.279H0v28.052h28.053v-28.052zM235.346 139.77l-16.065 16.064 16.065 16.065 16.064-16.065-16.064-16.064z" fill="#ED063D"/><path d="M252.029 92.599l-16.623-16.624L218.783 92.6l16.623 16.623 16.623-16.623z" fill="#2595E8"/><path d="M298.691 202.036l-17.043 17.042 17.043 17.043 17.042-17.043-17.042-17.042z" fill="#ED063D"/><path d="M59.069 142.48H32.2v26.867h26.867V142.48z" fill="#2595E8"/><path d="M349.09 60.957L330.232 42.1l-18.858 18.858 18.858 18.858 18.858-18.858z" fill="#ED063D"/></svg>