<svg width="273" height="40" viewBox="0 0 273 40" fill="none" xmlns="http://www.w3.org/2000/svg"><path d="M4.945 34.755C1.672 31.551 0 27.094 0 21.243V0h13.024v20.895c0 2.855.488 4.875 1.533 6.199 1.044 1.323 2.507 1.95 4.388 1.95 1.95 0 3.412-.627 4.387-1.95 1.045-1.324 1.533-3.344 1.533-6.2V0H37.68v21.313c0 5.78-1.671 10.308-4.945 13.512-3.343 3.203-7.94 4.805-13.86 4.805-5.92-.07-10.587-1.671-13.93-4.875zM58.923 25.84l-2.925 3.273v9.542H43.113V0h12.815v14.07L68.674 0h14.208L67.42 16.994 83.65 38.655H68.604l-9.68-12.815zM101.897 28.974H99.32v9.751H86.295V0h17.691c3.552 0 6.687.557 9.333 1.741 2.647 1.184 4.736 2.856 6.129 5.085 1.463 2.228 2.16 4.805 2.16 7.73 0 2.787-.627 5.155-1.881 7.244-1.254 2.09-3.065 3.692-5.433 4.945l8.149 11.98h-13.929l-6.617-9.75zm5.224-17.76c-.906-.767-2.229-1.184-3.97-1.184H99.39v9.054h3.761c1.741 0 3.064-.418 3.97-1.184.905-.766 1.323-1.88 1.323-3.343s-.488-2.508-1.323-3.344zM155.388 31.969h-14.696l-2.577 6.756h-13.303L141.737 0h12.815l16.925 38.725h-13.512l-2.577-6.756zm-3.552-9.403l-3.761-9.75-3.761 9.75h7.522zM174.75 0h13.024v38.725H174.75V0zM232.768 0v38.725h-10.726l-14.696-17.621v17.621H194.6V0h10.726l14.766 17.552V0h12.676zM272.398 28.835v9.82H240.22V0h31.482v9.82h-18.666v4.528h16.367v9.402h-16.367v5.085h19.362z" fill="#090012"/></svg>