<svg width="127" height="65" viewBox="0 0 127 65" fill="none" xmlns="http://www.w3.org/2000/svg"><g clip-path="url(#a)"><path d="M81.954 37.657l-3.368 3.374 3.368 3.374 3.367-3.374-3.367-3.374zM54.176 7.768l-5.413 5.425 5.413 5.424 5.413-5.425-5.413-5.424z" fill="#ED063D"/><path d="M63.408 54.935l-4.673 4.684 4.673 4.683 4.674-4.683-4.674-4.684z" fill="#FFBF15"/><path d="M35.66 28.291l-3.51 3.517 3.51 3.516 3.509-3.516-3.51-3.517zM81.955.424l-3.51 3.516 3.51 3.517 3.509-3.517-3.51-3.516z" fill="#ED063D"/><path d="M91.165 46.804l-3.509 3.516 3.51 3.516 3.508-3.516-3.509-3.516z" fill="#FFBF15"/><path d="M35.663 47.87L33.239 50.3l2.424 2.428 2.423-2.428-2.423-2.428zM37.23 11.679h-3.07v3.077h3.07V11.68zM83.385 58.218h-2.76v2.766h2.76v-2.766zM46.889 57.616h-3.961v3.97h3.96v-3.97zM94.223 28.738h-6.009v6.021h6.009v-6.02zM54.188 55.654c2.95 0 5.341-2.396 5.341-5.352a5.346 5.346 0 0 0-5.34-5.352 5.346 5.346 0 0 0-5.342 5.352 5.346 5.346 0 0 0 5.341 5.352zM63.446 7.531A3.609 3.609 0 0 0 67.05 3.92 3.609 3.609 0 0 0 63.446.306 3.609 3.609 0 0 0 59.84 3.92a3.609 3.609 0 0 0 3.605 3.612zM91.24 15.046c.996 0 1.803-.809 1.803-1.806 0-.998-.807-1.806-1.802-1.806-.996 0-1.803.808-1.803 1.806 0 .997.807 1.806 1.803 1.806z" fill="#ED063D"/><path d="M44.93 6.684a2.762 2.762 0 0 0 2.76-2.765 2.762 2.762 0 0 0-2.76-2.765 2.762 2.762 0 0 0-2.759 2.765 2.762 2.762 0 0 0 2.76 2.765zM44.886 27.422a4.968 4.968 0 0 0 4.963-4.972 4.968 4.968 0 0 0-4.963-4.973 4.968 4.968 0 0 0-4.963 4.973 4.968 4.968 0 0 0 4.963 4.972z" fill="#2595E8"/><path d="M72.703 54.628a4.322 4.322 0 0 0 4.317-4.326 4.322 4.322 0 0 0-4.317-4.326 4.322 4.322 0 0 0-4.317 4.326 4.322 4.322 0 0 0 4.317 4.326z" fill="#ED063D"/><path d="M69.799 38.92l-5.146 5.156 5.146 5.157 5.145-5.157L69.8 38.92z" fill="#2595E8"/><path d="M82.117 34.938a3.23 3.23 0 0 0 3.226-3.234 3.23 3.23 0 0 0-3.226-3.233 3.23 3.23 0 0 0-3.227 3.233 3.23 3.23 0 0 0 3.227 3.233z" fill="#FFBF15"/><path d="M41.57 45.53c-1.068-1.026-1.58-2.476-1.58-4.326V34.38h4.162v6.69c0 .914.155 1.56.49 1.984.333.424.8.625 1.401.625.623 0 1.09-.2 1.402-.625.334-.423.49-1.07.49-1.984v-6.69h4.094v6.824c0 1.85-.534 3.3-1.58 4.326-1.068 1.026-2.536 1.538-4.428 1.538-1.914 0-3.383-.512-4.45-1.538zM58.795 42.675l-.935 1.048v3.056h-4.095v-12.4h4.095v4.505l4.072-4.504h4.54l-4.94 5.463 5.185 6.935h-4.83l-3.092-4.103zM72.547 43.679h-.823V46.8h-4.161V34.402h5.652c1.135 0 2.136.179 2.982.558.846.379 1.513.914 1.959 1.628.467.713.69 1.538.69 2.475 0 .892-.2 1.65-.602 2.319-.4.669-.979 1.182-1.735 1.583l2.603 3.836h-4.45l-2.115-3.122zm1.647-5.687c-.289-.245-.712-.379-1.268-.379h-1.202v2.9h1.202c.556 0 .979-.134 1.268-.38.29-.245.423-.602.423-1.07 0-.446-.133-.803-.423-1.07zM89.794 44.638H85.1l-.824 2.163h-4.25l5.407-12.399h4.095l5.408 12.399h-4.317l-.824-2.163zm-1.157-3.01l-1.202-3.123-1.201 3.122h2.403zM95.803 34.402h4.161v12.399h-4.161V34.402zM114.362 34.402v12.399h-3.427l-4.695-5.642v5.642h-4.073V34.402h3.427l4.696 5.642v-5.642h4.072zM126.847 43.634v3.145h-10.281v-12.4h10.058v3.167h-5.964v1.45h5.23v3.01h-5.23v1.628h6.187zM9.77 28.047H5.073L4.25 30.21H0L5.408 17.81h4.094L14.91 30.21h-4.317l-.824-2.163zm-1.136-3.01l-1.201-3.123-1.202 3.122h2.403zM16.98 28.961c-1.069-1.026-1.58-2.475-1.58-4.326v-6.824h4.161v6.69c0 .915.156 1.561.49 1.985.334.424.8.624 1.402.624.623 0 1.09-.2 1.402-.624.334-.424.49-1.07.49-1.985v-6.69h4.094v6.824c0 1.85-.534 3.3-1.58 4.326-1.068 1.026-2.537 1.539-4.429 1.539-1.913 0-3.382-.513-4.45-1.539zM31.155 30.143c-.979-.223-1.78-.535-2.403-.937l1.335-3.055a8.392 8.392 0 0 0 1.98.826c.735.2 1.425.312 2.115.312.578 0 .98-.067 1.246-.179.245-.111.378-.29.378-.513 0-.267-.155-.446-.49-.58-.333-.133-.867-.267-1.601-.423-.957-.2-1.759-.424-2.382-.647-.645-.223-1.18-.602-1.669-1.137-.467-.535-.712-1.227-.712-2.14 0-.781.223-1.495.646-2.12.445-.646 1.09-1.137 1.958-1.516.868-.357 1.914-.557 3.16-.557.846 0 1.691.089 2.492.267.824.179 1.536.446 2.159.803l-1.246 3.033c-1.224-.624-2.36-.914-3.45-.914-1.068 0-1.602.267-1.602.78 0 .245.156.424.467.558.312.133.846.267 1.58.401.935.178 1.736.38 2.382.602.645.223 1.201.602 1.691 1.115.467.513.712 1.227.712 2.119 0 .78-.222 1.494-.645 2.118-.445.624-1.09 1.137-1.959 1.516-.867.38-1.913.558-3.16.558a9.492 9.492 0 0 1-2.982-.29zM59.062 27.088h-1.135v3.122h-4.162V17.81h5.964c1.135 0 2.137.179 2.982.558.846.379 1.514.914 1.959 1.628.467.713.69 1.538.69 2.475 0 .892-.2 1.65-.601 2.32-.4.668-.98 1.181-1.736 1.582l2.604 3.836h-4.451l-2.114-3.122zm1.669-5.664c-.29-.245-.712-.38-1.269-.38H57.95v2.9h1.513c.557 0 .98-.134 1.269-.38.289-.245.422-.602.422-1.07 0-.468-.155-.825-.422-1.07zM67.54 17.811h4.162V30.21H67.54V17.81zM82.784 28.047H78.09l-.824 2.163h-4.25l5.407-12.399h4.095l5.408 12.399h-4.317l-.824-2.163zm-1.157-3.01l-1.202-3.123-1.201 3.122h2.403zM43.93 21.067h-3.584v-3.256h11.35v3.234h-3.583v9.165H43.95v-9.143h-.022z" fill="#090012"/><path d="M57.526 21.558a2.272 2.272 0 0 0 2.27-2.275 2.272 2.272 0 0 0-2.27-2.274 2.272 2.272 0 0 0-2.27 2.274 2.272 2.272 0 0 0 2.27 2.275z" fill="#FFBF15"/><path d="M82.282 41.156l-2.911 2.917 2.91 2.917 2.912-2.917-2.911-2.917z" fill="#2595E8"/><path d="M75.418 10.497H70.01v5.419h5.408v-5.419zM82.139 24.769a2.317 2.317 0 0 0 2.314-2.32c0-1.28-1.036-2.319-2.314-2.319a2.317 2.317 0 0 0-2.314 2.32c0 1.28 1.036 2.319 2.314 2.319zM46.266 39.687h-2.737v2.743h2.737v-2.743z" fill="#ED063D"/></g><defs><clipPath id="a"><path fill="#fff" transform="translate(0 .306)" d="M0 0h126.847v64H0z"/></clipPath></defs></svg>